<?xml version="1.0" encoding="UTF-8"?>
<svg version="1.1" xmlns="http://www.w3.org/2000/svg" width="1600" height="336">
<path d="M0 0 C391.38 0 782.76 0 1186 0 C1186.33 33.99 1186.66 67.98 1187 103 C1189.69579615 104.34789808 1191.76139743 104.11360814 1194.78082275 104.10006714 C1196.01178177 104.09710632 1197.24274078 104.09414551 1198.51100159 104.09109497 C1199.88266033 104.08277055 1201.25431864 104.07437584 1202.62597656 104.06591797 C1204.06479228 104.06072671 1205.50360981 104.05601819 1206.94242859 104.05175781 C1210.04559208 104.04180299 1213.14872565 104.02894795 1216.2518692 104.01403427 C1221.15998689 103.99100323 1226.06810042 103.97767644 1230.97625732 103.96633911 C1244.93490783 103.9328799 1258.89349882 103.89132642 1272.85205078 103.82861328 C1280.55768074 103.79407484 1288.26326617 103.77027495 1295.96896529 103.75840485 C1300.04704706 103.75163574 1304.12494023 103.73918708 1308.20294952 103.71337509 C1312.0409893 103.68908447 1315.87881426 103.67873055 1319.71692848 103.67897034 C1321.12380406 103.67655222 1322.53068188 103.66899103 1323.93749809 103.65584183 C1325.86200527 103.63860799 1327.78666281 103.6418153 1329.71124268 103.64596558 C1330.78714283 103.64190138 1331.86304298 103.63783718 1332.97154617 103.63364983 C1336.49220016 104.05954115 1338.93337934 105.26154289 1342 107 C1342 107.66 1342 108.32 1342 109 C1341.38125 109.0825 1340.7625 109.165 1340.125 109.25 C1337.8496032 109.77445036 1337.8496032 109.77445036 1337.11328125 111.8046875 C1335.78979968 114.41450029 1334.20413854 115.88439926 1332.0625 117.875 C1326.59881123 123.21630214 1322.04678946 129.10913021 1317.41162109 135.16064453 C1315.10656341 138.16415622 1312.77403247 141.14594174 1310.4375 144.125 C1309.98133301 144.70725342 1309.52516602 145.28950684 1309.05517578 145.8894043 C1305.30463637 150.65668837 1301.42385094 155.30707486 1297.51953125 159.94921875 C1294.84344154 163.18956924 1292.26184863 166.49146082 1289.6875 169.8125 C1284.74151851 176.17375788 1279.5182929 182.25950713 1274.2109375 188.3203125 C1270.67522535 192.35838953 1267.21262057 196.4559114 1263.75756836 200.56298828 C1261.23301243 203.55911309 1258.67050067 206.51388141 1256.0625 209.4375 C1253.38057893 212.51363115 1250.92653161 215.38775324 1249 219 C1249.35303672 222.9023166 1250.5395283 225.12914788 1253 228.125 C1253.63164063 228.90230469 1254.26328125 229.67960938 1254.9140625 230.48046875 C1255.60242187 231.31191406 1256.29078125 232.14335937 1257 233 C1257.70898438 233.88300781 1258.41796875 234.76601562 1259.1484375 235.67578125 C1262.79212708 240.19523482 1266.50920532 244.60029486 1270.4375 248.875 C1274.23202339 253.03715888 1277.66947189 257.40735357 1281.05615234 261.8996582 C1284.24108727 266.09264643 1287.60439551 270.09295488 1291.0625 274.0625 C1295.5768563 279.25193369 1299.77590413 284.59048507 1303.85546875 290.1328125 C1306.70931973 293.94834369 1309.71937173 297.61980357 1312.7578125 301.2890625 C1314.24417682 303.08616501 1315.71834707 304.89342808 1317.1796875 306.7109375 C1321.69041677 312.31323115 1326.36911257 317.6926577 1331.28271484 322.94116211 C1337.78081923 329.90409613 1337.78081923 329.90409613 1339 336 C1240.66 336 1142.32 336 1041 336 C1035.42168062 313.6867225 1040.64619571 289.99727859 1041 267 C745.65 267 450.3 267 146 267 C146 289.44 146 311.88 146 335 C145 336 145 336 142.97142881 336.1241985 C142.06959303 336.12381878 141.16775724 336.12343906 140.2385931 336.12304783 C138.6837538 336.1260344 138.6837538 336.1260344 137.0975036 336.12908131 C135.9448048 336.12616847 134.792106 336.12325563 133.60447693 336.12025452 C132.39080745 336.12110894 131.17713798 336.12196337 129.92669064 336.12284368 C126.54266124 336.12421191 123.15868896 336.1210643 119.77466643 336.11606562 C116.13115984 336.11176454 112.48765514 336.1132073 108.84414673 336.1139679 C102.52645381 336.11449335 96.20877119 336.11134433 89.89108086 336.10573006 C80.75665657 336.09761794 71.62223728 336.09500013 62.48780978 336.09374207 C47.6693606 336.09155109 32.85091691 336.08488978 18.0324707 336.07543945 C3.63403348 336.06626651 -10.76440225 336.0591851 -25.1628418 336.05493164 C-26.04971676 336.05466892 -26.93659172 336.05440619 -27.85034169 336.05413551 C-32.2993402 336.05283051 -36.74833873 336.05156679 -41.19733727 336.05032361 C-78.13156206 336.03994958 -115.0657806 336.02233003 -152 336 C-152.66 334.68 -153.32 333.36 -154 332 C-153.34 332 -152.68 332 -152 332 C-151.77054688 331.43023437 -151.54109375 330.86046875 -151.3046875 330.2734375 C-149.66191439 327.41088076 -147.64158887 325.75327248 -145.125 323.625 C-141.30793803 320.29744598 -138.63177923 317.27664124 -136 313 C-135.34 313 -134.68 313 -134 313 C-133.75378906 312.45601563 -133.50757813 311.91203125 -133.25390625 311.3515625 C-128.93954907 303.26046274 -122.37333988 296.14741257 -116.19921875 289.4453125 C-113.23872109 286.15353358 -110.50347259 282.70479336 -107.76171875 279.23046875 C-105.55971364 276.44256427 -103.27976796 273.72460073 -101 271 C-99.54104715 269.20883777 -98.08278306 267.41711442 -96.625 265.625 C-93.90269604 262.2831684 -91.13909659 259.01069207 -88.25 255.8125 C-85.37826021 252.5942858 -83.15801372 249.22241343 -81.04296875 245.46875 C-80.69878906 244.9840625 -80.35460937 244.499375 -80 244 C-79.34 244 -78.68 244 -78 244 C-77.74863281 243.44054687 -77.49726562 242.88109375 -77.23828125 242.3046875 C-75.80756377 239.64183792 -74.09646973 237.46832422 -72.1875 235.125 C-71.47851562 234.24585938 -70.76953125 233.36671875 -70.0390625 232.4609375 C-68.42176995 230.50903269 -66.76211235 228.62851891 -65.0625 226.75 C-62.63253252 223.51004336 -61.67443259 222.06959264 -62 218 C-63.42956815 215.88367852 -65.05019557 214.13026846 -66.8203125 212.2890625 C-69.28605521 209.69959077 -71.50854355 206.97278523 -73.75 204.1875 C-76.61491236 200.61334525 -76.61491236 200.61334525 -79.765625 197.30078125 C-81 196 -81 196 -81 194 C-81.66 194 -82.32 194 -83 194 C-84.37482452 192.47047124 -85.67665897 190.87477094 -86.9375 189.25 C-87.97197266 187.92742187 -87.97197266 187.92742187 -89.02734375 186.578125 C-89.67832031 185.72734375 -90.32929687 184.8765625 -91 184 C-91.57878906 183.27296875 -92.15757813 182.5459375 -92.75390625 181.796875 C-94 180 -94 180 -94 178 C-94.66 178 -95.32 178 -96 178 C-97.41015625 176.41796875 -97.41015625 176.41796875 -99.0625 174.1875 C-105.3652143 165.8575209 -112.08162655 157.87417938 -118.83837891 149.91162109 C-124.40153073 143.35498 -129.95447619 136.78660126 -135.34375 130.0859375 C-139.44196769 124.99123537 -143.64893027 120.27504388 -148.3359375 115.71875 C-150.8201883 113.15285715 -153 110.66849181 -153 107 C-149.25664244 104.16496533 -146.49850793 103.62836971 -141.86273193 103.64596558 C-140.62883728 103.64328674 -139.39494263 103.64060791 -138.12365723 103.6378479 C-136.76440183 103.65005853 -135.40514894 103.66254959 -134.04589844 103.67529297 C-132.60837976 103.67777741 -131.17085823 103.67892337 -129.7333374 103.67883301 C-125.83687125 103.68223986 -121.94069514 103.70398512 -118.04431438 103.72874975 C-113.96887654 103.75124095 -109.89342146 103.75592252 -105.81793213 103.76223755 C-98.10208464 103.77671753 -90.38636763 103.8056464 -82.67058778 103.84048474 C-68.83696692 103.90247173 -55.0032671 103.93993432 -41.16954827 103.97207749 C-36.31178168 103.98393888 -31.45409053 104.00215053 -26.59636641 104.02559257 C-23.58300215 104.03937438 -20.56963353 104.04924991 -17.55625153 104.05822754 C-16.15373489 104.06331591 -14.75122341 104.07015646 -13.34872437 104.07883072 C-11.44228293 104.09043714 -9.53580467 104.09545023 -7.6293335 104.10006714 C-6.56009518 104.10488539 -5.49085686 104.10970364 -4.38921738 104.11466789 C-2.0464648 104.2705968 -2.0464648 104.2705968 -1 103 C3.8556954 69.01013223 0 34.33495142 0 0 Z " fill="#FDE985" transform="translate(204,0)"/>
<path d="M0 0 C18.05422438 -0.09340641 36.10838612 -0.16396101 54.16279984 -0.20724869 C62.54562707 -0.2278814 70.92830424 -0.2560154 79.31103516 -0.30175781 C86.61671286 -0.34160405 93.9222819 -0.36742766 101.22806525 -0.37635398 C105.09712915 -0.38157254 108.96588216 -0.39385233 112.8348465 -0.42292023 C116.47593643 -0.45005465 120.11658719 -0.45844918 123.75776863 -0.45243073 C125.73230207 -0.45405722 127.70678759 -0.4755904 129.68119812 -0.49768066 C130.85626419 -0.49218201 132.03133026 -0.48668335 133.24200439 -0.48101807 C134.26335102 -0.48470524 135.28469765 -0.48839241 136.33699417 -0.49219131 C139.72997314 0.13491763 140.91162061 1.30165671 143 4 C143.48774719 7.01786804 143.48774719 7.01786804 143.4699707 10.58862305 C143.4721611 11.24109009 143.4743515 11.89355713 143.47660828 12.5657959 C143.47891352 14.71495841 143.45270547 16.8627398 143.42578125 19.01171875 C143.42085689 20.50575831 143.41755831 21.99980404 143.41581726 23.49385071 C143.40818456 26.62020664 143.38764228 29.74610354 143.35668945 32.87231445 C143.31701216 36.88757488 143.29906386 40.90253744 143.28938007 44.91797161 C143.27942906 48.74092797 143.25952898 52.56381096 143.23828125 56.38671875 C143.2348855 57.11987494 143.23148975 57.85303112 143.2279911 58.60840416 C143.21646557 60.67221289 143.19795526 62.73582866 143.17700195 64.79956055 C143.16223564 66.5635041 143.16223564 66.5635041 143.14717102 68.36308289 C143 71 143 71 142 72 C139.81360547 72.07258946 137.62499611 72.08373783 135.4375 72.0625 C133.64119141 72.04896484 133.64119141 72.04896484 131.80859375 72.03515625 C130.41833984 72.01775391 130.41833984 72.01775391 129 72 C129.66 71.34 130.32 70.68 131 70 C131.99 70.33 132.98 70.66 134 71 C134 70.34 134 69.68 134 69 C131.69 68.67 129.38 68.34 127 68 C127 67.34 127 66.68 127 66 C125.35 66 123.7 66 122 66 C121.76539063 65.38640625 121.53078125 64.7728125 121.2890625 64.140625 C119.6609418 61.4369579 118.27366164 60.90946466 115.375 59.75 C114.55773437 59.41484375 113.74046875 59.0796875 112.8984375 58.734375 C112.27195312 58.49203125 111.64546875 58.2496875 111 58 C111 57.34 111 56.68 111 56 C109.02 56 107.04 56 105 56 C105 55.34 105 54.68 105 54 C104.13375 53.814375 104.13375 53.814375 103.25 53.625 C101 53 101 53 99.1875 52 C96.19737502 50.63308572 93.24675551 50.37462564 90 50 C89.505 48.02 89.505 48.02 89 46 C87.865625 45.71125 86.73125 45.4225 85.5625 45.125 C84.386875 44.75375 83.21125 44.3825 82 44 C81.67 43.34 81.34 42.68 81 42 C80.01 42 79.02 42 78 42 C78 41.34 78 40.68 78 40 C76.35 40.33 74.7 40.66 73 41 C73 40.01 73 39.02 73 38 C72.236875 37.855625 71.47375 37.71125 70.6875 37.5625 C68 37 68 37 65 36 C65 35.34 65 34.68 65 34 C64.071875 34.2784375 64.071875 34.2784375 63.125 34.5625 C61 35 61 35 59 34 C59 33.34 59 32.68 59 32 C58.34 31.7525 57.68 31.505 57 31.25 C54.57777143 30.2407381 52.32207661 29.1469149 50 27.9375 C47.01337945 26.41590733 44.35975066 25.41996883 41 25 C41 24.01 41 23.02 41 22 C40.01 22 39.02 22 38 22 C38 21.34 38 20.68 38 20 C36.35 20 34.7 20 33 20 C33 19.34 33 18.68 33 18 C30.69 18 28.38 18 26 18 C25.67 17.01 25.34 16.02 25 15 C22.07085835 13.82917122 22.07085835 13.82917122 19 13 C18.34 12.67 17.68 12.34 17 12 C17 11.34 17 10.68 17 10 C16.34 10 15.68 10 15 10 C15 9.34 15 8.68 15 8 C12.69 8 10.38 8 8 8 C8 7.34 8 6.68 8 6 C7.01 6 6.02 6 5 6 C5 5.34 5 4.68 5 4 C2.03 3.505 2.03 3.505 -1 3 C-0.67 2.01 -0.34 1.02 0 0 Z " fill="#FEDB45" transform="translate(207,264)"/>
<path d="M0 0 C45.87 0 91.74 0 139 0 C139 1.32 139 2.64 139 4 C135.77576472 7.22423528 133.37649665 8.17201415 129 9 C128.34 9.99 127.68 10.98 127 12 C124.828125 12.80859375 124.828125 12.80859375 122.25 13.4375 C117.83219554 14.65271269 114.74581297 16.31278635 111 19 C107.22090116 21.07266039 103.35692985 22.85230489 99.375 24.5 C95.98676103 25.8819719 95.98676103 25.8819719 93.1875 27.9375 C89.72713799 30.17655777 86.32334805 31.5395072 82.4921875 33.01171875 C78.86984992 34.44816296 75.46127913 36.21726761 72 38 C69.62606682 39.18969525 67.25113516 40.37722423 64.875 41.5625 C63.71742187 42.14128906 62.55984375 42.72007812 61.3671875 43.31640625 C58.24479167 44.87760417 55.12239583 46.43880208 52 48 C51.30003906 48.350625 50.60007812 48.70125 49.87890625 49.0625 C48.57627131 49.71246338 47.27142028 50.35799694 45.96484375 51 C44.96130859 51.495 44.96130859 51.495 43.9375 52 C42.93009766 52.495 42.93009766 52.495 41.90234375 53 C39.76612385 54.08091824 39.76612385 54.08091824 37 56 C34.24434445 56.99672647 31.55241636 57.88055862 28.6875 58.5 C28.130625 58.665 27.57375 58.83 27 59 C26.67 59.66 26.34 60.32 26 61 C24.22265625 62 24.22265625 62 22.0625 63 C19.51384512 64.18413003 18.01242841 64.98757159 16 67 C13.69088595 67.8473813 11.35525327 68.52421344 8.99609375 69.21875 C6.81272599 69.81628991 6.81272599 69.81628991 6 72 C3.69 72 1.38 72 -1 72 C-2.09078349 68.48935209 -2.09227407 65.28952597 -2.03759766 61.62670898 C-2.02072906 60.33534531 -2.00386047 59.04398163 -1.98648071 57.71348572 C-1.96259575 56.30768405 -1.93845009 54.90188679 -1.9140625 53.49609375 C-1.89228256 52.0516864 -1.87083348 50.60727402 -1.84970093 49.16285706 C-1.80426091 46.13918638 -1.75504482 43.11560718 -1.703125 40.09204102 C-1.63683927 36.21610753 -1.57958142 32.34010351 -1.52509499 28.4639883 C-1.48225857 25.48283508 -1.43483355 22.50176854 -1.38599777 19.52070808 C-1.36310099 18.09138175 -1.34159146 16.6620325 -1.32149124 15.23266411 C-1.29269289 13.23633599 -1.25710016 11.24010936 -1.22119141 9.24389648 C-1.20263092 8.10790512 -1.18407043 6.97191376 -1.16494751 5.80149841 C-1 3 -1 3 0 0 Z " fill="#FDDB46" transform="translate(1246,264)"/>
<path d="M0 0 C1.32 0 2.64 0 4 0 C4.04668163 13.7861255 4.0818371 27.57223879 4.10362434 41.35842705 C4.11407904 47.75932423 4.12826892 54.16016846 4.15087891 60.56103516 C4.17254725 66.73367969 4.18455591 72.90627317 4.18975449 79.07895279 C4.19346107 81.4385674 4.20069867 83.79817909 4.21146011 86.15777206 C4.22589516 89.45273718 4.2279813 92.74748903 4.22705078 96.04248047 C4.23424133 97.0264682 4.24143188 98.01045593 4.24884033 99.02426147 C4.246091 99.91891113 4.24334167 100.81356079 4.24050903 101.73532104 C4.24235262 102.51515791 4.24419621 103.29499477 4.24609566 104.09846306 C4 106 4 106 2 108 C-0.55187988 108.25168228 -0.55187988 108.25168228 -3.84570312 108.25396729 C-5.09085693 108.25960693 -6.33601074 108.26524658 -7.61889648 108.27105713 C-9.00634823 108.26716817 -10.39379941 108.26307181 -11.78125 108.25878906 C-13.23641129 108.26149788 -14.69157121 108.2650582 -16.14672852 108.26940918 C-20.10532983 108.27854848 -24.06382722 108.27498262 -28.02243042 108.26865101 C-32.15883674 108.26359896 -36.29523397 108.26828024 -40.43164062 108.27142334 C-47.37892256 108.27506531 -54.32616201 108.27025784 -61.2734375 108.26074219 C-69.31347304 108.24985718 -77.35340716 108.2533826 -85.39344025 108.264395 C-92.28773112 108.27346131 -99.18199141 108.27475638 -106.07628632 108.26951766 C-110.19776574 108.26639433 -114.31919744 108.26599851 -118.44067383 108.27259064 C-122.31481694 108.27835396 -126.18882887 108.27438593 -130.06295776 108.26280212 C-131.48761782 108.26015008 -132.91228885 108.26092986 -134.33694458 108.26532745 C-136.27605809 108.27076269 -138.21519564 108.26275001 -140.15429688 108.25396729 C-141.24125854 108.25321323 -142.32822021 108.25245918 -143.44812012 108.25168228 C-146 108 -146 108 -148 106 C-147.505 105.01 -147.505 105.01 -147 104 C-145.88044591 104.00138269 -145.88044591 104.00138269 -144.73827457 104.00279331 C-126.60380403 104.02484744 -108.46933616 104.04141101 -90.33485508 104.05181217 C-81.56527285 104.05697538 -72.79569955 104.06401854 -64.02612305 104.07543945 C-56.38537097 104.08538554 -48.74462536 104.09185325 -41.10386699 104.09408849 C-37.05561615 104.09539573 -33.00738381 104.09848238 -28.95913887 104.10573006 C-25.15319131 104.11248909 -21.34726998 104.1146172 -17.54131699 104.11310768 C-16.14042328 104.11338406 -14.73952875 104.11538988 -13.33864021 104.11920547 C-11.43410492 104.12414083 -9.52955574 104.122398 -7.62501526 104.12025452 C-6.02247816 104.12163721 -6.02247816 104.12163721 -4.38756657 104.12304783 C-2.04636098 104.26961958 -2.04636098 104.26961958 -1 103 C0.04170834 97.44442251 0.13676492 92.03260752 0.11352539 86.39282227 C0.11374443 84.98677483 0.11374443 84.98677483 0.1139679 83.55232239 C0.11327477 80.47365961 0.10551059 77.39505837 0.09765625 74.31640625 C0.09578994 72.17406752 0.09436704 70.03172835 0.09336853 67.88938904 C0.08956016 62.26537893 0.07974426 56.64139487 0.06866455 51.01739502 C0.05841426 45.27266797 0.05386317 39.52793669 0.04882812 33.78320312 C0.03812044 22.52212401 0.02106425 11.26106417 0 0 Z " fill="#F7E993" transform="translate(204,0)"/>
<path d="M0 0 C18.05422438 -0.09340641 36.10838612 -0.16396101 54.16279984 -0.20724869 C62.54562707 -0.2278814 70.92830424 -0.2560154 79.31103516 -0.30175781 C86.61671286 -0.34160405 93.9222819 -0.36742766 101.22806525 -0.37635398 C105.09712915 -0.38157254 108.96588216 -0.39385233 112.8348465 -0.42292023 C116.47593643 -0.45005465 120.11658719 -0.45844918 123.75776863 -0.45243073 C125.73230207 -0.45405722 127.70678759 -0.4755904 129.68119812 -0.49768066 C130.85626419 -0.49218201 132.03133026 -0.48668335 133.24200439 -0.48101807 C134.26335102 -0.48470524 135.28469765 -0.48839241 136.33699417 -0.49219131 C139.72997314 0.13491763 140.91162061 1.30165671 143 4 C143.48774719 7.01786804 143.48774719 7.01786804 143.4699707 10.58862305 C143.4721611 11.24109009 143.4743515 11.89355713 143.47660828 12.5657959 C143.47891352 14.71495841 143.45270547 16.8627398 143.42578125 19.01171875 C143.42085689 20.50575831 143.41755831 21.99980404 143.41581726 23.49385071 C143.40818456 26.62020664 143.38764228 29.74610354 143.35668945 32.87231445 C143.31701216 36.88757488 143.29906386 40.90253744 143.28938007 44.91797161 C143.27942906 48.74092797 143.25952898 52.56381096 143.23828125 56.38671875 C143.2348855 57.11987494 143.23148975 57.85303112 143.2279911 58.60840416 C143.21646557 60.67221289 143.19795526 62.73582866 143.17700195 64.79956055 C143.16223564 66.5635041 143.16223564 66.5635041 143.14717102 68.36308289 C143 71 143 71 142 72 C139.81360547 72.07258946 137.62499611 72.08373783 135.4375 72.0625 C133.64119141 72.04896484 133.64119141 72.04896484 131.80859375 72.03515625 C130.41833984 72.01775391 130.41833984 72.01775391 129 72 C129.66 71.34 130.32 70.68 131 70 C131.99 70.33 132.98 70.66 134 71 C134 70.34 134 69.68 134 69 C131.69 68.67 129.38 68.34 127 68 C127 67.34 127 66.68 127 66 C125.35 66 123.7 66 122 66 C121.34 64.35 120.68 62.7 120 61 C120.66 61 121.32 61 122 61 C122 61.66 122 62.32 122 63 C123.65 63 125.3 63 127 63 C127 63.66 127 64.32 127 65 C130.6606494 65.75366311 134.30808984 66.38468164 138 67 C138.33 46.21 138.66 25.42 139 4 C138.34 4 137.68 4 137 4 C137 3.34 137 2.68 137 2 C94.1 2 51.2 2 7 2 C7 3.32 7 4.64 7 6 C6.34 6 5.68 6 5 6 C5 5.34 5 4.68 5 4 C2.03 3.505 2.03 3.505 -1 3 C-0.67 2.01 -0.34 1.02 0 0 Z " fill="#F6E268" transform="translate(207,264)"/>
<path d="M0 0 C45.87 0 91.74 0 139 0 C139 1.32 139 2.64 139 4 C138.67 3.34 138.34 2.68 138 2 C93.12 2 48.24 2 2 2 C2 23.12 2 44.24 2 66 C2.66 66 3.32 66 4 66 C4 66.66 4 67.32 4 68 C5.32 68.33 6.64 68.66 8 69 C7.34 69.99 6.68 70.98 6 72 C2.375 72.1875 2.375 72.1875 -1 72 C-2.09078349 68.48935209 -2.09227407 65.28952597 -2.03759766 61.62670898 C-2.02072906 60.33534531 -2.00386047 59.04398163 -1.98648071 57.71348572 C-1.96259575 56.30768405 -1.93845009 54.90188679 -1.9140625 53.49609375 C-1.89228256 52.0516864 -1.87083348 50.60727402 -1.84970093 49.16285706 C-1.80426091 46.13918638 -1.75504482 43.11560718 -1.703125 40.09204102 C-1.63683927 36.21610753 -1.57958142 32.34010351 -1.52509499 28.4639883 C-1.48225857 25.48283508 -1.43483355 22.50176854 -1.38599777 19.52070808 C-1.36310099 18.09138175 -1.34159146 16.6620325 -1.32149124 15.23266411 C-1.29269289 13.23633599 -1.25710016 11.24010936 -1.22119141 9.24389648 C-1.20263092 8.10790512 -1.18407043 6.97191376 -1.16494751 5.80149841 C-1 3 -1 3 0 0 Z " fill="#F7E066" transform="translate(1246,264)"/>
<path d="M0 0 C1.32 0 2.64 0 4 0 C4.33 33.99 4.66 67.98 5 103 C7.64 103.99 10.28 104.98 13 106 C12.505 106.99 12.505 106.99 12 108 C8.04 108 4.08 108 0 108 C0 72.36 0 36.72 0 0 Z " fill="#F8EB92" transform="translate(1386,0)"/>
<path d="M0 0 C1.98 0.66 3.96 1.32 6 2 C6 2.66 6 3.32 6 4 C6.66 4 7.32 4 8 4 C8 4.66 8 5.32 8 6 C10.97 6.495 10.97 6.495 14 7 C14 8.32 14 9.64 14 11 C14.66 11.33 15.32 11.66 16 12 C16 13.32 16 14.64 16 16 C16.66 16 17.32 16 18 16 C18 16.66 18 17.32 18 18 C19.32 18 20.64 18 22 18 C22 19.32 22 20.64 22 22 C22.66 22 23.32 22 24 22 C24 22.66 24 23.32 24 24 C24.66 24 25.32 24 26 24 C26 24.66 26 25.32 26 26 C26.9590625 26.309375 26.9590625 26.309375 27.9375 26.625 C30 28 30 28 30.75 31.125 C30.87375 32.548125 30.87375 32.548125 31 34 C32.65 34.33 34.3 34.66 36 35 C36 35.99 36 36.98 36 38 C36.66 38 37.32 38 38 38 C38 39.32 38 40.64 38 42 C39.65 42 41.3 42 43 42 C42.67 43.32 42.34 44.64 42 46 C42.99 45.34 43.98 44.68 45 44 C45.99 44 46.98 44 48 44 C48 45.98 48 47.96 48 50 C48.66 50 49.32 50 50 50 C50 52 50 54 50 56 C50.66 56 51.32 56 52 56 C52 56.66 52 57.32 52 58 C52.66 58 53.32 58 54 58 C56.09350689 61.4019487 56.17942163 64.05272412 56 68 C51.49486569 63.76790414 47.485708 59.11304141 44 54 C44 53.34 44 52.68 44 52 C43.34 52 42.68 52 42 52 C40.58984375 50.41796875 40.58984375 50.41796875 38.9375 48.1875 C33.07044532 40.43331021 26.84908216 32.978065 20.5625 25.5625 C20.10311035 25.02061035 19.6437207 24.4787207 19.17041016 23.92041016 C18.48084229 23.10709229 18.48084229 23.10709229 17.77734375 22.27734375 C4.54843839 6.67104297 4.54843839 6.67104297 0 0 Z " fill="#F5E37D" transform="translate(66,126)"/>
<path d="M0 0 C0.33 0 0.66 0 1 0 C1.33 22.77 1.66 45.54 2 69 C-2.29 69 -6.58 69 -11 69 C-10.01 68.01 -10.01 68.01 -9 67 C-8.01 67.33 -7.02 67.66 -6 68 C-6 67.34 -6 66.68 -6 66 C-8.31 65.67 -10.62 65.34 -13 65 C-13 64.34 -13 63.68 -13 63 C-14.65 63 -16.3 63 -18 63 C-18.66 61.35 -19.32 59.7 -20 58 C-19.34 58 -18.68 58 -18 58 C-18 58.66 -18 59.32 -18 60 C-16.35 60 -14.7 60 -13 60 C-13 60.66 -13 61.32 -13 62 C-9.34523516 62.75245158 -5.68154028 63.39320873 -2 64 C-1.98969254 63.27194656 -1.97938507 62.54389313 -1.96876526 61.79377747 C-1.8706695 54.92282063 -1.76813817 48.05194266 -1.66066074 41.18112659 C-1.60556493 37.64902064 -1.55216687 34.11690622 -1.50268555 30.5847168 C-1.44568633 26.52123332 -1.38123675 22.45789738 -1.31640625 18.39453125 C-1.29969376 17.1297847 -1.28298126 15.86503815 -1.26576233 14.56196594 C-1.24581711 13.38111923 -1.22587189 12.20027252 -1.20532227 10.98364258 C-1.18977798 9.94661697 -1.1742337 8.90959137 -1.15821838 7.84114075 C-1.00743096 5.13343836 -0.60489118 2.63977491 0 0 Z " fill="#F0DB59" transform="translate(347,267)"/>
<path d="M0 0 C2.45470789 -0.07079579 4.90833677 -0.11836629 7.36376953 -0.15429688 C8.06614746 -0.17556641 8.76852539 -0.19683594 9.4921875 -0.21875 C14.07528263 -0.25031867 17.11932382 0.77920798 21.05126953 3.09570312 C21.05126953 3.75570312 21.05126953 4.41570312 21.05126953 5.09570312 C20.12314453 5.21945313 20.12314453 5.21945313 19.17626953 5.34570312 C16.37621534 6.33395754 16.31013021 7.49930298 15.05126953 10.09570312 C12.92626953 11.34570312 12.92626953 11.34570312 11.05126953 12.09570312 C11.05126953 10.77570313 11.05126953 9.45570312 11.05126953 8.09570312 C11.71126953 8.09570312 12.37126953 8.09570312 13.05126953 8.09570312 C13.05126953 6.77570313 13.05126953 5.45570312 13.05126953 4.09570312 C-1.46873047 4.09570312 -15.98873047 4.09570312 -30.94873047 4.09570312 C-30.61873047 3.10570313 -30.28873047 2.11570312 -29.94873047 1.09570312 C-19.96739817 0.67786958 -9.98477217 0.32406282 0 0 Z " fill="#FCED94" transform="translate(1524.94873046875,103.904296875)"/>
<path d="M0 0 C4.71967132 3.43248823 8.25471425 7.57919468 12 12 C12.50273438 12.55300781 13.00546875 13.10601562 13.5234375 13.67578125 C16.22137477 16.69341629 17.64091364 18.93035457 18 23 C16.39667209 23.08121924 14.79215974 23.13929134 13.1875 23.1875 C11.84751953 23.23970703 11.84751953 23.23970703 10.48046875 23.29296875 C8 23 8 23 6.17578125 21.67578125 C5 20 5 20 5 17 C4.34 17 3.68 17 3 17 C3 13.7 3 10.4 3 7 C1.68 6.67 0.36 6.34 -1 6 C-0.67 4.02 -0.34 2.04 0 0 Z " fill="#F8E26F" transform="translate(1525,313)"/>
<path d="M0 0 C4.22682179 1.56402305 6.56170546 4.73205057 9.3125 8.125 C10.28851978 9.30513656 11.2650817 10.48482496 12.2421875 11.6640625 C12.71366211 12.23672852 13.18513672 12.80939453 13.67089844 13.39941406 C15.38809873 15.46737239 17.15609295 17.48724138 18.9375 19.5 C19.47375 20.11359375 20.01 20.7271875 20.5625 21.359375 C21.84889956 22.82754841 23.14271473 24.28921662 24.4375 25.75 C26 28 26 28 26 32 C25.34 32 24.68 32 24 32 C24 31.34 24 30.68 24 30 C23.34 30 22.68 30 22 30 C21.67 29.01 21.34 28.02 21 27 C20.01 26.67 19.02 26.34 18 26 C16.8125 22.9375 16.8125 22.9375 16 20 C14.68 20.33 13.36 20.66 12 21 C12 20.01 12 19.02 12 18 C11.34 18 10.68 18 10 18 C10 16.68 10 15.36 10 14 C9.34 14 8.68 14 8 14 C8 12.68 8 11.36 8 10 C6.68 10 5.36 10 4 10 C1.75 8.375 1.75 8.375 0 6 C-0.25 2.75 -0.25 2.75 0 0 Z " fill="#F6E990" transform="translate(1456,230)"/>
<path d="M0 0 C14.52 0 29.04 0 44 0 C44 0.66 44 1.32 44 2 C39.24962333 3.22031898 34.62833736 3.12723661 29.76171875 3.09765625 C28.88095169 3.0962413 28.00018463 3.09482635 27.09272766 3.09336853 C24.29094997 3.08778937 21.48925338 3.07524071 18.6875 3.0625 C16.78320428 3.05748231 14.87890731 3.05291987 12.97460938 3.04882812 C8.31637519 3.03782677 3.65820133 3.02057649 -1 3 C-0.67 2.01 -0.34 1.02 0 0 Z " fill="#F8E78F" transform="translate(1405,105)"/>
<path d="M0 0 C0.99 0 1.98 0 3 0 C2.67 2.31 2.34 4.62 2 7 C1.01 7 0.02 7 -1 7 C-1 8.32 -1 9.64 -1 11 C-1.66 11 -2.32 11 -3 11 C-3.33 11.99 -3.66 12.98 -4 14 C-4.99 13.67 -5.98 13.34 -7 13 C-7.12375 13.556875 -7.2475 14.11375 -7.375 14.6875 C-8.07760904 17.28715346 -8.76657238 19.598062 -10 22 C-12.0625 22.6875 -12.0625 22.6875 -14 23 C-14.33 23.66 -14.66 24.32 -15 25 C-15.9375 22.4375 -15.9375 22.4375 -16 19 C-14.57208781 17.13564953 -12.93399348 15.70508858 -11.1796875 14.14453125 C-7.60793596 10.63038861 -4.8855778 6.46808724 -2.015625 2.37890625 C-1.01789063 1.20134766 -1.01789063 1.20134766 0 0 Z " fill="#F5E480" transform="translate(95,280)"/>
<path d="M0 0 C0.66 0 1.32 0 2 0 C1.43818225 3.87791279 0.34625496 6.40915326 -1.875 9.625 C-2.64457031 10.75808594 -2.64457031 10.75808594 -3.4296875 11.9140625 C-5 14 -5 14 -6.6328125 15.5859375 C-8.26267909 17.06790791 -8.26267909 17.06790791 -9 20 C-9.66 20 -10.32 20 -11 20 C-11.2475 20.61875 -11.495 21.2375 -11.75 21.875 C-13.22770762 24.38710296 -14.43955177 24.76107344 -17 26 C-17.33 26.99 -17.66 27.98 -18 29 C-18.33 29 -18.66 29 -19 29 C-19 27.35 -19 25.7 -19 24 C-18.34 24 -17.68 24 -17 24 C-16.74863281 23.44054687 -16.49726562 22.88109375 -16.23828125 22.3046875 C-14.80756377 19.64183792 -13.09646973 17.46832422 -11.1875 15.125 C-10.47722656 14.2484375 -9.76695312 13.371875 -9.03515625 12.46875 C-7.41588184 10.50448623 -5.77871785 8.56009671 -4.125 6.625 C-2.35682225 4.44078043 -1.08775892 2.57106654 0 0 Z " fill="#F9E994" transform="translate(143,220)"/>
<path d="M0 0 C0.99 0.33 1.98 0.66 3 1 C2.56826373 6.09448798 2.24599784 9.84512277 -1 14 C-1.66 14 -2.32 14 -3 14 C-3 14.66 -3 15.32 -3 16 C-3.66 16 -4.32 16 -5 16 C-6.76462683 19.08809695 -7 20.23312136 -7 24 C-7.99 24.33 -8.98 24.66 -10 25 C-10.33 27.31 -10.66 29.62 -11 32 C-11.99 32 -12.98 32 -14 32 C-14 31.34 -14 30.68 -14 30 C-14.66 30.66 -15.32 31.32 -16 32 C-16.99 32.66 -17.98 33.32 -19 34 C-19 32.68 -19 31.36 -19 30 C-16.5625 27.875 -16.5625 27.875 -14 26 C-13.67 25.34 -13.34 24.68 -13 24 C-12.34 24 -11.68 24 -11 24 C-10.67 22.35 -10.34 20.7 -10 19 C-9.01 18.67 -8.02 18.34 -7 18 C-6.30959426 16.34302621 -5.6469365 14.6744239 -5 13 C-3 10.1875 -3 10.1875 -1 8 C-0.34 8 0.32 8 1 8 C0.67 5.36 0.34 2.72 0 0 Z " fill="#F7E47B" transform="translate(145,216)"/>
<path d="M0 0 C0.66 0 1.32 0 2 0 C3.41706502 1.54888502 4.75809496 3.16761534 6.0625 4.8125 C6.8565625 5.80894531 7.650625 6.80539062 8.46875 7.83203125 C8.88253906 8.35361816 9.29632812 8.87520508 9.72265625 9.41259766 C10.98990198 10.98745082 12.28504073 12.53371769 13.59375 14.07421875 C14.81578125 15.52248047 14.81578125 15.52248047 16.0625 17 C16.81660156 17.886875 17.57070312 18.77375 18.34765625 19.6875 C20 22 20 22 20 25 C18.68 25 17.36 25 16 25 C15.6596875 23.9171875 15.6596875 23.9171875 15.3125 22.8125 C13.74082213 19.44461885 11.68042475 17.54967233 9 15 C6 11.37931034 6 11.37931034 6 9 C5.34 9 4.68 9 4 9 C3.34 7.35 2.68 5.7 2 4 C1.34 4 0.68 4 0 4 C0 2.68 0 1.36 0 0 Z " fill="#F7E793" transform="translate(1484,263)"/>
<path d="M0 0 C0.66 0 1.32 0 2 0 C2 0.99 2 1.98 2 3 C1.01 3.495 1.01 3.495 0 4 C0 4.99 0 5.98 0 7 C-0.66 7 -1.32 7 -2 7 C-2 7.66 -2 8.32 -2 9 C-2.66 9 -3.32 9 -4 9 C-4.144375 9.763125 -4.28875 10.52625 -4.4375 11.3125 C-5 14 -5 14 -6 17 C-5.34 17 -4.68 17 -4 17 C-4 17.66 -4 18.32 -4 19 C-5.3303125 18.690625 -5.3303125 18.690625 -6.6875 18.375 C-10.2252711 17.97449761 -11.86632967 18.43316484 -15 20 C-13.55372351 15.33403655 -10.82323235 12.31845264 -7.5 8.875 C-4.78475163 6.01942871 -2.19539512 3.29309268 0 0 Z " fill="#F3E380" transform="translate(118,253)"/>
<path d="M0 0 C0.33 0.33 0.66 0.66 1 1 C4.36209065 1.28469316 7.72414001 1.44895063 11.09375 1.62109375 C12.0528125 1.74613281 13.011875 1.87117188 14 2 C14.33 2.66 14.66 3.32 15 4 C14.34926514 4.02505615 13.69853027 4.0501123 13.02807617 4.07592773 C10.08101954 4.19193702 7.1342787 4.31464115 4.1875 4.4375 C2.65125977 4.49647461 2.65125977 4.49647461 1.08398438 4.55664062 C-0.39038086 4.61948242 -0.39038086 4.61948242 -1.89453125 4.68359375 C-2.80050049 4.72025146 -3.70646973 4.75690918 -4.63989258 4.79467773 C-7.15048782 4.9208205 -7.15048782 4.9208205 -10 6 C-10 4.68 -10 3.36 -10 2 C-6.60379269 -0.08997373 -3.94836905 -0.2632246 0 0 Z " fill="#F6E998" transform="translate(359,262)"/>
<path d="M0 0 C0.66 0 1.32 0 2 0 C2 0.66 2 1.32 2 2 C3.65 2 5.3 2 7 2 C7 2.66 7 3.32 7 4 C7.680625 4.12375 8.36125 4.2475 9.0625 4.375 C12.4277412 5.09100877 15.70013425 6.02945125 19 7 C18.67 8.32 18.34 9.64 18 11 C15.03 11 12.06 11 9 11 C9.66 10.34 10.32 9.68 11 9 C11.99 9.33 12.98 9.66 14 10 C14 9.34 14 8.68 14 8 C11.69 7.67 9.38 7.34 7 7 C7 6.34 7 5.68 7 5 C5.35 5 3.7 5 2 5 C1.34 3.35 0.68 1.7 0 0 Z " fill="#FBDE60" transform="translate(327,325)"/>
<path d="M0 0 C3.50602742 0.58046812 5.20849502 1.80123031 7.6875 4.3125 C8.59048828 5.20388672 8.59048828 5.20388672 9.51171875 6.11328125 C11.08578165 8.10874682 11.58891824 9.51706615 12 12 C9.36 12 6.72 12 4 12 C3.34 9.03 2.68 6.06 2 3 C1.34 3 0.68 3 0 3 C0 2.01 0 1.02 0 0 Z " fill="#F5E485" transform="translate(1530,321)"/>
<path d="M0 0 C0 0.66 0 1.32 0 2 C-0.61875 2.0825 -1.2375 2.165 -1.875 2.25 C-4.67505419 3.23825442 -4.74113932 4.40359985 -6 7 C-8.125 8.25 -8.125 8.25 -10 9 C-10 7.68 -10 6.36 -10 5 C-9.34 5 -8.68 5 -8 5 C-8 3.68 -8 2.36 -8 1 C-13.61 1 -19.22 1 -25 1 C-25 0.67 -25 0.34 -25 0 C-21.77138267 -0.19789024 -18.54210273 -0.38146345 -15.3125 -0.5625 C-14.40048828 -0.61857422 -13.48847656 -0.67464844 -12.54882812 -0.73242188 C-11.21948242 -0.80493164 -11.21948242 -0.80493164 -9.86328125 -0.87890625 C-9.05157471 -0.9260376 -8.23986816 -0.97316895 -7.40356445 -1.02172852 C-4.8210515 -0.99838228 -2.51150091 -0.5804792 0 0 Z " fill="#F3E491" transform="translate(1546,107)"/>
<path d="M0 0 C2.64 0.33 5.28 0.66 8 1 C8 1.66 8 2.32 8 3 C10.31 3.33 12.62 3.66 15 4 C15.33 4.99 15.66 5.98 16 7 C18.97 7.495 18.97 7.495 22 8 C22 8.66 22 9.32 22 10 C22.66 10.33 23.32 10.66 24 11 C20.25 12.125 20.25 12.125 18 11 C18 10.34 18 9.68 18 9 C17.34 8.7525 16.68 8.505 16 8.25 C13.57777143 7.2407381 11.32207661 6.1469149 9 4.9375 C6.01337945 3.41590733 3.35975066 2.41996883 0 2 C0 1.34 0 0.68 0 0 Z " fill="#FBDE5A" transform="translate(248,287)"/>
<path d="M0 0 C-1.8093753 0.90468765 -3.61901609 1.80884673 -5.4296875 2.7109375 C-7.33480643 3.66639228 -9.23512845 4.63142477 -11.1328125 5.6015625 C-12.73769531 6.41753906 -12.73769531 6.41753906 -14.375 7.25 C-15.39335938 7.77078125 -16.41171875 8.2915625 -17.4609375 8.828125 C-20 10 -20 10 -22 10 C-22 8.68 -22 7.36 -22 6 C-21.04287109 5.81824219 -21.04287109 5.81824219 -20.06640625 5.6328125 C-19.24011719 5.46523438 -18.41382813 5.29765625 -17.5625 5.125 C-16.73878906 4.96257812 -15.91507813 4.80015625 -15.06640625 4.6328125 C-14.38449219 4.42398437 -13.70257812 4.21515625 -13 4 C-12.67 3.34 -12.34 2.68 -12 2 C-9.78515625 1.11328125 -9.78515625 1.11328125 -7.0625 0.3125 C-6.16660156 0.04050781 -5.27070312 -0.23148437 -4.34765625 -0.51171875 C-2 -1 -2 -1 0 0 Z " fill="#FADF58" transform="translate(1326,298)"/>
<path d="M0 0 C1.65 0 3.3 0 5 0 C7.33855982 3.65399972 7.07721498 6.75317631 7 11 C7.33 11.99 7.66 12.98 8 14 C6.68 14 5.36 14 4 14 C4 10.7 4 7.4 4 4 C2.35 4 0.7 4 -1 4 C-0.67 2.68 -0.34 1.36 0 0 Z " fill="#F7E479" transform="translate(1450,226)"/>
<path d="M0 0 C0.99 1.32 1.98 2.64 3 4 C-1.29 4 -5.58 4 -10 4 C-8 0 -8 0 -6.125 -0.8125 C-3.69768888 -1.02667451 -2.2543968 -0.94539221 0 0 Z " fill="#FAE374" transform="translate(1262,332)"/>
<path d="M0 0 C2.12472576 -0.05386629 4.24983652 -0.09273071 6.375 -0.125 C7.55835938 -0.14820312 8.74171875 -0.17140625 9.9609375 -0.1953125 C13 0 13 0 15 2 C14 3 14 3 10.40234375 3.09765625 C8.91403133 3.0909822 7.42573568 3.07902183 5.9375 3.0625 C5.17888672 3.05798828 4.42027344 3.05347656 3.63867188 3.04882812 C1.75908129 3.0370068 -0.12046899 3.01907078 -2 3 C-1.34 2.67 -0.68 2.34 0 2 C0 1.34 0 0.68 0 0 Z " fill="#FBEBA5" transform="translate(1527,104)"/>
<path d="M0 0 C3.24299151 2.38957269 5.50902342 4.2047869 7 8 C6.34 8 5.68 8 5 8 C5.33 9.32 5.66 10.64 6 12 C5.01 12 4.02 12 3 12 C3 10.35 3 8.7 3 7 C1.68 6.67 0.36 6.34 -1 6 C-0.67 4.02 -0.34 2.04 0 0 Z " fill="#F6E37E" transform="translate(1525,313)"/>
<path d="M0 0 C4.95 0 9.9 0 15 0 C15 0.66 15 1.32 15 2 C7.08 2.495 7.08 2.495 -1 3 C-0.67 2.01 -0.34 1.02 0 0 Z " fill="#F6E68F" transform="translate(1495,105)"/>
<path d="M0 0 C-3 2 -3 2 -5.5625 2.4375 C-8.35426675 2.78821951 -8.35426675 2.78821951 -10 6 C-12.625 6.1875 -12.625 6.1875 -15 6 C-12.74613612 2.43138219 -10.97253353 0.69506414 -6.9375 -0.375 C-3 -1 -3 -1 0 0 Z " fill="#FBE05C" transform="translate(1383,270)"/>
<path d="M0 0 C0.99 0 1.98 0 3 0 C3 1.98 3 3.96 3 6 C3.66 6 4.32 6 5 6 C4.67 6.99 4.34 7.98 4 9 C3.01 8.67 2.02 8.34 1 8 C1 7.34 1 6.68 1 6 C0.34 6 -0.32 6 -1 6 C-1.042721 4.33388095 -1.04063832 2.66617115 -1 1 C-0.67 0.67 -0.34 0.34 0 0 Z " fill="#FCE469" transform="translate(111,170)"/>
<path d="M0 0 C3.3 0 6.6 0 10 0 C10 1.32 10 2.64 10 4 C9.236875 3.814375 8.47375 3.62875 7.6875 3.4375 C4.91032625 2.77180827 4.91032625 2.77180827 2 4 C2 3.34 2 2.68 2 2 C1.34 2 0.68 2 0 2 C0 1.34 0 0.68 0 0 Z " fill="#F8E476" transform="translate(1528,108)"/>
<path d="M0 0 C0.33 0.99 0.66 1.98 1 3 C0.34 3 -0.32 3 -1 3 C-1 3.99 -1 4.98 -1 6 C-1.66 6 -2.32 6 -3 6 C-3.33 6.99 -3.66 7.98 -4 9 C-4.99 9 -5.98 9 -7 9 C-6.82374165 6.62051228 -6.30280227 5.29774151 -4.59765625 3.62109375 C-3.09350908 2.37884514 -1.54870149 1.18623944 0 0 Z " fill="#F8E993" transform="translate(59,324)"/>
<path d="M0 0 C3.79379058 1.49041773 5.68343758 3.69062512 8 7 C8 7.66 8 8.32 8 9 C6.0625 8.1875 6.0625 8.1875 4 7 C3.67 6.01 3.34 5.02 3 4 C2.34 4 1.68 4 1 4 C0.67 4.66 0.34 5.32 0 6 C0 4.02 0 2.04 0 0 Z " fill="#F6EA97" transform="translate(1456,230)"/>
<path d="M0 0 C4.95 0 9.9 0 15 0 C15 0.66 15 1.32 15 2 C12 3 12 3 9.6875 2.5 C6.53759463 1.91397109 4.11479378 2.34806642 1 3 C0.67 2.01 0.34 1.02 0 0 Z " fill="#F4E58D" transform="translate(1450,105)"/>
<path d="M0 0 C1.65 0 3.3 0 5 0 C5.33 0.99 5.66 1.98 6 3 C6.66 3.33 7.32 3.66 8 4 C8 5.32 8 6.64 8 8 C7.34 8 6.68 8 6 8 C6 7.34 6 6.68 6 6 C4.68 6 3.36 6 2 6 C2 4.68 2 3.36 2 2 C1.34 2 0.68 2 0 2 C0 1.34 0 0.68 0 0 Z M4 3 C5 5 5 5 5 5 Z " fill="#F8E379" transform="translate(56,110)"/>
<path d="M0 0 C2.86207152 1.28299758 5.0245088 2.530636 7 5 C7 5.99 7 6.98 7 8 C5.68 8 4.36 8 3 8 C3 6.68 3 5.36 3 4 C2.34 4 1.68 4 1 4 C0.67 2.68 0.34 1.36 0 0 Z " fill="#F7EA9C" transform="translate(1533,323)"/>
<path d="M0 0 C3.35433109 0.94933899 6.69246505 1.89748835 10 3 C10 3.66 10 4.32 10 5 C7.03 4.67 4.06 4.34 1 4 C0.67 2.68 0.34 1.36 0 0 Z " fill="#FDDF5E" transform="translate(296,310)"/>
<path d="M0 0 C2.35448165 2.55068845 2.98327924 3.71017358 3.1875 7.25 C3.125625 8.1575 3.06375 9.065 3 10 C0.525 9.01 0.525 9.01 -2 8 C-2 6.35 -2 4.7 -2 3 C-1.34 3 -0.68 3 0 3 C0 2.01 0 1.02 0 0 Z " fill="#F4E57F" transform="translate(1482,259)"/>
<path d="M0 0 C0.66 1.32 1.32 2.64 2 4 C1.360625 4.103125 0.72125 4.20625 0.0625 4.3125 C-0.618125 4.539375 -1.29875 4.76625 -2 5 C-2.33 5.99 -2.66 6.98 -3 8 C-3.66 6.35 -4.32 4.7 -5 3 C-3.35 2.01 -1.7 1.02 0 0 Z " fill="#F3DD7A" transform="translate(56,104)"/>
<path d="M0 0 C0.99 0 1.98 0 3 0 C3.33 2.64 3.66 5.28 4 8 C2.68 8 1.36 8 0 8 C0 5.36 0 2.72 0 0 Z " fill="#F1E191" transform="translate(1387,96)"/>
<path d="M0 0 C0.66 0 1.32 0 2 0 C2 0.66 2 1.32 2 2 C3.32 2.33 4.64 2.66 6 3 C5.01 4.485 5.01 4.485 4 6 C2.68 6 1.36 6 0 6 C0 4.02 0 2.04 0 0 Z " fill="#F6DE5A" transform="translate(1248,330)"/>
<path d="M0 0 C3.125 -0.1875 3.125 -0.1875 6 0 C6.33 0.99 6.66 1.98 7 3 C4.03 3 1.06 3 -2 3 C-1.34 2.01 -0.68 1.02 0 0 Z " fill="#FDEFB0" transform="translate(62,104)"/>
<path d="M0 0 C0.66 0 1.32 0 2 0 C2 0.66 2 1.32 2 2 C2.66 2 3.32 2 4 2 C4.33 3.65 4.66 5.3 5 7 C3.68 6.67 2.36 6.34 1 6 C0.67 4.02 0.34 2.04 0 0 Z " fill="#FAED9D" transform="translate(1449,220)"/>
<path d="M0 0 C1.98 0.99 1.98 0.99 4 2 C4 3.32 4 4.64 4 6 C2.68 5.67 1.36 5.34 0 5 C0 3.35 0 1.7 0 0 Z " fill="#F8E378" transform="translate(1496,282)"/>
<path d="M0 0 C0.66 0 1.32 0 2 0 C2 1.98 2 3.96 2 6 C0.68 6 -0.64 6 -2 6 C-2 4.68 -2 3.36 -2 2 C-1.34 2 -0.68 2 0 2 C0 1.34 0 0.68 0 0 Z " fill="#FBE56A" transform="translate(142,230)"/>
<path d="M0 0 C2.64 0 5.28 0 8 0 C8 0.66 8 1.32 8 2 C2.25 3.125 2.25 3.125 0 2 C0 1.34 0 0.68 0 0 Z " fill="#F4E78D" transform="translate(1466,105)"/>
<path d="M0 0 C2.3431213 0.25561323 4.67843403 0.59270772 7 1 C7.33 1.66 7.66 2.32 8 3 C5.69 3 3.38 3 1 3 C0.67 2.01 0.34 1.02 0 0 Z " fill="#FDDF60" transform="translate(232,279)"/>
<path d="M0 0 C2.64 0.33 5.28 0.66 8 1 C8 1.99 8 2.98 8 4 C2.25 2.25 2.25 2.25 0 0 Z " fill="#FCDF5B" transform="translate(224,275)"/>
<path d="M0 0 C1.32 0 2.64 0 4 0 C4 1.32 4 2.64 4 4 C4.66 4 5.32 4 6 4 C6 4.66 6 5.32 6 6 C3.37812506 4.95125002 2.20628639 4.35068687 0.75 1.875 C0.5025 1.25625 0.255 0.6375 0 0 Z " fill="#F6E896" transform="translate(54,112)"/>
</svg>
