<svg width="41" height="40" viewBox="0 0 41 40" fill="none" xmlns="http://www.w3.org/2000/svg">
<mask id="mask0_359_1788" style="mask-type:luminance" maskUnits="userSpaceOnUse" x="0" y="0" width="41" height="40">
<path d="M40.5669 20C40.5669 8.9543 31.6126 0 20.5669 0C9.5212 0 0.566895 8.9543 0.566895 20C0.566895 31.0457 9.5212 40 20.5669 40C31.6126 40 40.5669 31.0457 40.5669 20Z" fill="white"/>
</mask>
<g mask="url(#mask0_359_1788)">
<path d="M606.883 -0.421021H0.566895V144.421H606.883V-0.421021Z" fill="#F0EDFF"/>
<path d="M32.8252 12.0468C34.0706 13.3262 34.2335 15.359 34.2335 20.3334C34.2335 25.3078 34.0706 27.3406 32.8252 28.62C31.5799 29.8989 30.2827 30.0001 20.5668 30.0001C10.851 30.0001 9.55375 29.8989 8.3084 28.62C7.06301 27.3406 6.90015 25.3078 6.90015 20.3334C6.90015 15.359 7.06301 13.3262 8.3084 12.0468C9.55375 10.7674 10.851 10.6667 20.5668 10.6667C30.2827 10.6667 31.5799 10.768 32.8252 12.0468ZM18.2606 24.5509L25.177 20.5489L18.2606 16.6094V24.5509Z" fill="#5B58DC"/>
</g>
</svg>
