<svg width="41" height="40" viewBox="0 0 41 40" fill="none" xmlns="http://www.w3.org/2000/svg">
<mask id="mask0_359_1781" style="mask-type:luminance" maskUnits="userSpaceOnUse" x="0" y="0" width="41" height="40">
<path d="M40.5669 20C40.5669 8.9543 31.6126 0 20.5669 0C9.5212 0 0.566895 8.9543 0.566895 20C0.566895 31.0457 9.5212 40 20.5669 40C31.6126 40 40.5669 31.0457 40.5669 20Z" fill="white"/>
</mask>
<g mask="url(#mask0_359_1781)">
<path d="M606.883 -0.421021H0.566895V144.421H606.883V-0.421021Z" fill="#5B58DC"/>
<path d="M30.2208 11.1054C28.4515 10.2776 26.5597 9.67594 24.5818 9.33337C24.3389 9.77253 24.0551 10.3632 23.8594 10.8331C21.7568 10.517 19.6736 10.517 17.6098 10.8331C17.4141 10.3632 17.1239 9.77253 16.8788 9.33337C14.8988 9.67594 13.0048 10.2798 11.2354 11.1098C7.66668 16.5027 6.69923 21.7616 7.18298 26.9458C9.54997 28.7135 11.8439 29.7872 14.0991 30.4899C14.6559 29.7235 15.1525 28.9089 15.5803 28.0503C14.7655 27.7407 13.9851 27.3587 13.2477 26.9151C13.4434 26.7702 13.6347 26.6187 13.8196 26.4628C18.317 28.5663 23.2037 28.5663 27.6474 26.4628C27.8345 26.6187 28.0258 26.7702 28.2193 26.9151C27.4797 27.3608 26.6972 27.7429 25.8824 28.0525C26.3103 28.9089 26.8047 29.7258 27.3636 30.492C29.621 29.7894 31.917 28.7156 34.2841 26.9458C34.8516 20.936 33.3145 15.7254 30.2208 11.1054ZM16.193 23.7576C14.8429 23.7576 13.7357 22.4972 13.7357 20.9623C13.7357 19.4275 14.8193 18.1649 16.193 18.1649C17.5668 18.1649 18.6739 19.4252 18.6503 20.9623C18.6525 22.4972 17.5668 23.7576 16.193 23.7576ZM25.274 23.7576C23.9239 23.7576 22.8167 22.4972 22.8167 20.9623C22.8167 19.4275 23.9002 18.1649 25.274 18.1649C26.6478 18.1649 27.7549 19.4252 27.7313 20.9623C27.7313 22.4972 26.6478 23.7576 25.274 23.7576Z" fill="#F0EDFF"/>
</g>
</svg>
