<svg width="95" height="95" viewBox="0 0 95 95" fill="none" xmlns="http://www.w3.org/2000/svg">
<g clip-path="url(#clip0_944_316)">
<rect y="-1" width="1440" height="344" fill="#5B58DC"/>
<path d="M57.5024 24.5416C70.2526 24.5416 71.2498 25.5389 71.2498 38.2891V57.5014C71.2498 70.2516 70.2526 71.25 57.5024 71.25H55.0631V54.2458H61.0581L62.0004 47.5081H55.0631C55.0631 47.5081 55.0526 43.5636 55.0631 42.5792C55.0829 40.6537 56.6908 39.6798 58.0722 39.6938C59.4536 39.7078 62.3157 39.6985 62.3157 39.6985V33.4898C62.3157 33.4898 59.8367 33.1687 57.2373 33.1418C55.0526 33.1196 52.6401 33.7105 50.6935 35.6722C48.7131 37.6678 48.4013 40.6397 48.3628 44.2712C48.3522 45.3222 48.3628 47.5081 48.3628 47.5081H42.4962V54.2458H48.3628V71.25H38.2901C25.5387 71.25 24.5415 70.2516 24.5415 57.5025V38.2891C24.5415 25.5389 25.5387 24.5416 38.2889 24.5416H57.5024Z" fill="#F0EDFF"/>
</g>
<defs>
<clipPath id="clip0_944_316">
<rect width="95" height="95" rx="47.5" fill="white"/>
</clipPath>
</defs>
</svg>
