<svg width="95" height="95" viewBox="0 0 95 95" fill="none" xmlns="http://www.w3.org/2000/svg">
<g clip-path="url(#clip0_944_326)">
<rect y="-1" width="1440" height="344" fill="#F0EDFF"/>
<path d="M47.2936 25.3334C26.1926 25.3334 24.5415 26.9856 24.5415 48.0854V48.498C24.5415 69.5978 26.1926 71.25 47.2936 71.25H47.7061C68.8071 71.25 70.4582 69.5978 70.4582 48.498V48.2917C70.4582 27.0001 68.7914 25.3334 47.4998 25.3334H47.2936ZM61.2681 32.2209C62.5366 32.2174 63.5672 33.2415 63.5707 34.51C63.5741 35.7784 62.55 36.8091 61.2816 36.8125C60.0131 36.816 58.9824 35.7919 58.979 34.5234C58.9756 33.255 59.9997 32.2243 61.2681 32.2209ZM47.4729 36.8125C53.8117 36.7976 58.9641 41.926 58.979 48.2648C58.9939 54.6036 53.8655 59.756 47.5267 59.7709C41.1879 59.7858 36.0356 54.6574 36.0207 48.3186C36.0057 41.9798 41.1341 36.8275 47.4729 36.8125ZM47.4841 41.4042C43.6799 41.4134 40.6032 44.5054 40.6123 48.3096C40.6215 52.1127 43.7125 55.1884 47.5155 55.1792C51.3197 55.17 54.3965 52.0791 54.3873 48.276C54.3782 44.4718 51.2872 41.395 47.4841 41.4042Z" fill="#5B58DC"/>
</g>
<defs>
<clipPath id="clip0_944_326">
<rect width="95" height="95" rx="47.5" fill="white"/>
</clipPath>
</defs>
</svg>
