<svg width="95" height="95" viewBox="0 0 95 95" fill="none" xmlns="http://www.w3.org/2000/svg">
<rect width="95" height="95" rx="8" fill="#F0EDFF"/>
<path d="M55.4881 28.2398V28.2312H57.7153L58.5291 28.3937C59.0716 28.4993 59.5642 28.6375 60.0068 28.8086C60.4494 28.9797 60.8777 29.1793 61.2917 29.4074C61.7058 29.6355 62.0813 29.868 62.4182 30.1046C62.7523 30.3385 63.0521 30.5865 63.3177 30.8489C63.5803 31.114 63.9901 31.1825 64.5469 31.0542C65.1037 30.9258 65.7033 30.7476 66.3458 30.5195C66.9883 30.2914 67.6236 30.0348 68.2518 29.7496C68.88 29.4645 69.2627 29.2834 69.3997 29.2064C69.5339 29.1266 69.6053 29.0838 69.6139 29.0781L69.6224 29.0653L69.6652 29.0439L69.7081 29.0225L69.7509 29.0011L69.7937 28.9797L69.8023 28.9669L69.8151 28.9583L69.828 28.9498L69.8366 28.9369L69.8794 28.9241L69.9222 28.9156L69.9137 28.9797L69.9008 29.0439L69.8794 29.108L69.858 29.1722L69.8366 29.215L69.8151 29.2577L69.7937 29.3219C69.7795 29.3647 69.7652 29.4217 69.7509 29.493C69.7366 29.5643 69.601 29.8494 69.344 30.3484C69.087 30.8474 68.7658 31.3536 68.3803 31.8668C67.9948 32.3801 67.6493 32.7679 67.3438 33.0302C67.0354 33.2954 66.8313 33.4808 66.7313 33.5863C66.6314 33.6946 66.51 33.7944 66.3672 33.8857L66.1531 34.0268L66.1102 34.0482L66.0674 34.0696L66.0589 34.0824L66.046 34.091L66.0331 34.0995L66.0246 34.1124L65.9817 34.1338L65.9389 34.1551L65.9304 34.168L65.9175 34.1765L65.9046 34.1851L65.8961 34.1979L65.8876 34.2108L65.8747 34.2193L65.8618 34.2279L65.8532 34.2407H66.0674L67.2667 33.9841C68.0662 33.813 68.83 33.6063 69.5582 33.3639L70.7146 32.9789L70.8431 32.9361L70.9073 32.9148L70.9502 32.8934L70.993 32.872L71.0358 32.8506L71.0787 32.8292L71.1643 32.8164L71.25 32.8078V32.8934L71.2286 32.9019L71.2072 32.9148L71.1986 32.9276L71.1858 32.9361L71.1729 32.9447L71.1643 32.9575L71.1558 32.9704L71.1429 32.9789L71.1301 32.9875L71.1215 33.0003L71.113 33.0131L71.1001 33.0217L71.0787 33.0645L71.0573 33.1072L71.0444 33.1158C71.0387 33.1243 70.8574 33.3667 70.5005 33.8429C70.1435 34.322 69.9508 34.5643 69.9222 34.57C69.8937 34.5786 69.8537 34.6214 69.8023 34.6984C69.7538 34.7782 69.4511 35.0961 68.8943 35.6522C68.3375 36.2082 67.7921 36.7029 67.2582 37.1364C66.7214 37.5726 66.4501 38.1087 66.4444 38.7446C66.4358 39.3776 66.4029 40.0934 66.3458 40.8918C66.2887 41.6902 66.1816 42.5527 66.0246 43.4795C65.8676 44.4062 65.6248 45.4541 65.2964 46.6232C64.9681 47.7923 64.5683 48.9329 64.0972 50.045C63.626 51.1571 63.1335 52.1551 62.6195 53.0391C62.1055 53.923 61.6344 54.6716 61.206 55.2846C60.7777 55.8977 60.3423 56.4751 59.8997 57.0169C59.4571 57.5587 58.8975 58.1689 58.2207 58.8475C57.5411 59.5233 57.17 59.894 57.1071 59.9596C57.0415 60.0224 56.7616 60.2562 56.2676 60.6611C55.7765 61.0688 55.2482 61.4766 54.6828 61.8844C54.1203 62.2893 53.6035 62.6272 53.1323 62.8981C52.6612 63.1689 52.093 63.4783 51.4276 63.8262C50.7652 64.1769 50.0485 64.502 49.2775 64.8014C48.5065 65.1008 47.6927 65.3788 46.8361 65.6355C45.9795 65.8921 45.1514 66.0917 44.3519 66.2343C43.5524 66.3769 42.6458 66.4981 41.6321 66.5979L40.1116 66.7476V66.7689H37.3275V66.7476L36.9635 66.7262C36.7208 66.7119 36.5209 66.6976 36.3638 66.6834C36.2068 66.6692 35.6143 66.5907 34.5863 66.4482C33.5584 66.3056 32.7517 66.163 32.1664 66.0204C31.581 65.8779 30.7101 65.607 29.5537 65.2078C28.3972 64.8086 27.4078 64.4051 26.5854 63.9973C25.7659 63.5924 25.252 63.3357 25.0435 63.2274C24.8379 63.1219 24.6066 62.9907 24.3496 62.8339L23.9642 62.5987L23.9556 62.5858L23.9427 62.5773L23.9299 62.5687L23.9213 62.5559L23.8785 62.5345L23.8357 62.5131L23.8271 62.5003L23.8142 62.4917L23.8014 62.4832L23.7928 62.4703L23.7843 62.4575L23.7714 62.449H23.75V62.3634L23.7928 62.372L23.8357 62.3848L24.0284 62.4062C24.1569 62.4204 24.5067 62.4418 25.0778 62.4703C25.6489 62.4989 26.2556 62.4989 26.8981 62.4703C27.5406 62.4418 28.1974 62.3777 28.8684 62.2779C29.5394 62.1781 30.3318 62.007 31.2455 61.7646C32.1593 61.5222 32.9988 61.2342 33.764 60.9006C34.5264 60.5642 35.0689 60.3132 35.3916 60.1478C35.7114 59.9853 36.1997 59.683 36.8564 59.241L37.8415 58.5781L37.8501 58.5652L37.8629 58.5567L37.8758 58.5481L37.8844 58.5353L37.8929 58.5225L37.9058 58.5139L37.9187 58.5054L37.9272 58.4925L37.97 58.4797L38.0128 58.4711L38.0214 58.4284L38.0343 58.3856L38.0472 58.377L38.0557 58.3642L37.713 58.3428C37.4846 58.3286 37.2633 58.3143 37.0491 58.3001C36.835 58.2858 36.4995 58.2216 36.0426 58.1076C35.5858 57.9935 35.0932 57.8224 34.5649 57.5943C34.0367 57.3662 33.5227 57.0953 33.023 56.7816C32.5233 56.468 32.1621 56.207 31.9394 55.9989C31.7195 55.7936 31.4339 55.5027 31.0827 55.1264C30.7344 54.7471 30.4317 54.3579 30.1747 53.9587C29.9177 53.5595 29.6722 53.0989 29.438 52.5771L29.0825 51.7987L29.0611 51.7345L29.0397 51.6704L29.0268 51.6276L29.0183 51.5848L29.0825 51.5934L29.1468 51.6062L29.6179 51.6704C29.932 51.7131 30.4246 51.7274 31.0956 51.7131C31.7666 51.6989 32.2306 51.6704 32.4876 51.6276C32.7446 51.5848 32.9017 51.5563 32.9587 51.542L33.0444 51.5207L33.1515 51.4993L33.2586 51.4779L33.2671 51.4651L33.28 51.4565L33.2929 51.4479L33.3014 51.4351L33.2157 51.4137L33.1301 51.3923L33.0444 51.371L32.9587 51.3496L32.8731 51.3282C32.816 51.3139 32.7161 51.2854 32.5733 51.2426C32.4305 51.1999 32.045 51.043 31.4168 50.7721C30.7887 50.5013 30.2889 50.2375 29.9177 49.9809C29.5456 49.7235 29.1907 49.442 28.8555 49.1382C28.5214 48.8303 28.1545 48.4339 27.7547 47.9492C27.355 47.4644 26.9981 46.9013 26.6839 46.2597C26.3699 45.6181 26.1343 45.005 25.9772 44.4205C25.8208 43.8393 25.7176 43.2452 25.6689 42.6454L25.5917 41.7472L25.6346 41.7558L25.6774 41.7686L25.7202 41.79L25.7631 41.8114L25.8059 41.8328L25.8487 41.8541L26.5126 42.1535C26.9552 42.3532 27.5049 42.5243 28.1616 42.6668C28.8184 42.8094 29.211 42.8878 29.3395 42.9021L29.5322 42.9234H29.9177L29.9092 42.9106L29.8963 42.9021L29.8835 42.8935L29.8749 42.8807L29.8664 42.8678L29.8535 42.8593L29.8406 42.8507L29.8321 42.8379L29.7892 42.8165L29.7464 42.7951L29.7379 42.7823L29.725 42.7737L29.7121 42.7652L29.7036 42.7524L29.6607 42.731L29.6179 42.7096L29.6094 42.6968C29.6008 42.691 29.478 42.5998 29.241 42.423C29.0068 42.2434 28.7613 42.011 28.5043 41.7258C28.2473 41.4407 27.9903 41.1413 27.7333 40.8276C27.4759 40.5132 27.2465 40.1769 27.048 39.8225C26.8482 39.466 26.6368 39.0126 26.4141 38.4623C26.1943 37.9148 26.0272 37.3631 25.913 36.807C25.7988 36.251 25.7345 35.7021 25.7202 35.1603C25.706 34.6185 25.7202 34.1551 25.7631 33.7702C25.8059 33.3853 25.8916 32.9504 26.0201 32.4656C26.1486 31.9809 26.3342 31.4676 26.5769 30.9258L26.9409 30.1132L26.9624 30.049L26.9838 29.9849L26.9967 29.9763L27.0052 29.9635L27.0138 29.9506L27.0266 29.9421L27.0395 29.9506L27.048 29.9635L27.0566 29.9763L27.0694 29.9849L27.0823 29.9934L27.0908 30.0062L27.0994 30.0191L27.1123 30.0276L27.1337 30.0704L27.1551 30.1132L27.168 30.1217L27.1765 30.1346L27.7547 30.7761C28.1402 31.2039 28.5971 31.6815 29.1253 32.209C29.6536 32.7365 29.9463 33.0103 30.0034 33.0302C30.0605 33.053 30.1319 33.1186 30.2175 33.227C30.3032 33.3325 30.5888 33.5849 31.0742 33.9841C31.5596 34.3833 32.1949 34.8466 32.9802 35.3742C33.7654 35.9017 34.6363 36.4221 35.5929 36.9353C36.5495 37.4486 37.5774 37.912 38.6767 38.3254C39.7761 38.7389 40.5471 39.0098 40.9896 39.1381C41.4322 39.2664 42.1889 39.4304 43.2597 39.63C44.3305 39.8296 45.1372 39.9579 45.6797 40.0149C46.2222 40.072 46.5934 40.1048 46.7933 40.1133L47.0931 40.1219L47.0846 40.0577L47.0717 39.9936L46.986 39.4589C46.9289 39.1025 46.9004 38.6035 46.9004 37.9619C46.9004 37.3203 46.9503 36.7286 47.0503 36.1868C47.1502 35.645 47.3001 35.0961 47.5 34.5401C47.6999 33.9841 47.8955 33.5378 48.0868 33.2013C48.281 32.8677 48.5351 32.487 48.8492 32.0593C49.1633 31.6316 49.5702 31.1896 50.0699 30.7334C50.5696 30.2771 51.1407 29.8708 51.7831 29.5144C52.4256 29.1579 53.0181 28.887 53.5606 28.7017C54.1032 28.5164 54.5601 28.3951 54.9312 28.3381C55.3025 28.2811 55.4881 28.2483 55.4881 28.2398Z" fill="#5B58DC"/>
</svg>
